<?xml version="1.0" encoding="UTF-8"?>
<svg xmlns="http://www.w3.org/2000/svg" xmlns:xlink="http://www.w3.org/1999/xlink" width="595pt" height="552.1pt" viewBox="0 0 595 552.1" version="1.1">
<defs>
<clipPath id="clip1">
  <path d="M 450 0 L 595 0 L 595 552.101563 L 450 552.101563 Z M 450 0 "/>
</clipPath>
<clipPath id="clip2">
  <path d="M 0 1 L 404 1 L 404 552.101563 L 0 552.101563 Z M 0 1 "/>
</clipPath>
</defs>
<g id="surface1">
<g clip-path="url(#clip1)" clip-rule="nonzero">
<path style=" stroke:none;fill-rule:evenodd;fill:rgb(10.984802%,10.205078%,11.767578%);fill-opacity:1;" d="M 1772.089844 436.421875 L 1772.089844 115.671875 C 1768.511719 110.023438 1763.410156 84.09375 1756.289063 71.878906 C 1749.46875 60.15625 1740.191406 47.621094 1730.5 38.085938 C 1714.839844 22.65625 1679.621094 1.742188 1649.441406 1.742188 L 1232.421875 1.742188 C 1194.871094 1.742188 1160.910156 26.527344 1142.601563 46.851563 C 1120.421875 71.449219 1108.019531 99.253906 1108.019531 145.46875 L 1108.019531 376.828125 L 1225.410156 376.828125 L 1225.410156 136.703125 C 1225.410156 125.785156 1236.339844 117.425781 1246.441406 117.425781 L 1631.921875 117.425781 C 1644.089844 117.425781 1654.691406 124.851563 1654.691406 136.703125 L 1654.691406 415.390625 C 1654.691406 424.800781 1644.828125 434.664063 1635.421875 434.664063 L 962.585938 434.664063 C 947.421875 434.664063 887.035156 368.539063 871.148438 356.121094 C 862.171875 349.109375 789.960938 279.902344 785.617188 273.414063 L 1074.878906 0.152344 L 904.765625 -0.0078125 L 682.769531 209.128906 L 657.796875 204.425781 L 566.597656 205.0625 L 566.597656 1.742188 L 450.953125 1.742188 L 450.953125 550.347656 L 564.84375 550.347656 L 564.84375 322.492188 L 659.460938 322.492188 C 672.703125 322.492188 717.78125 373.128906 730 383.386719 C 751.175781 401.164063 777.992188 425.988281 797.460938 445.609375 C 816.539063 464.832031 848.40625 489.960938 864.011719 508.738281 C 879.628906 527.527344 917.566406 552.101563 950.320313 552.101563 L 1638.929688 552.101563 C 1674.488281 552.101563 1709.390625 534.3125 1727.890625 516.648438 C 1738.289063 506.722656 1748.769531 494.789063 1755.761719 481.429688 C 1761.769531 469.9375 1768.949219 441.371094 1772.089844 436.421875 Z M 1772.089844 436.421875 "/>
</g>
<g clip-path="url(#clip2)" clip-rule="nonzero">
<path style=" stroke:none;fill-rule:evenodd;fill:rgb(10.984802%,10.205078%,12.156677%);fill-opacity:1;" d="M -297.222656 315.484375 C -297.222656 279.84375 -297.222656 244.203125 -297.222656 208.566406 C -297.222656 183.253906 -305.917969 117.425781 -281.457031 117.425781 L 116.289063 117.425781 C 126.527344 117.425781 135.5625 126.460938 135.5625 136.703125 L 135.5625 141.960938 C 135.5625 158.128906 85.964844 176.394531 71.894531 183.4375 C 48.441406 195.171875 25.378906 205.84375 2.398438 217.328125 C -43.933594 240.488281 -90.40625 262.871094 -137.1875 286.277344 C -183.648438 309.523438 -230.476563 333.460938 -276.753906 355.238281 C -301.355469 366.816406 -322.867188 377.394531 -346.285156 389.097656 C -355.316406 393.613281 -412.867188 418.769531 -412.867188 425.90625 L -412.867188 550.347656 L -31.167969 362.257813 C -28.84375 370.492188 26.765625 446.425781 35.710938 459.183594 C 43.15625 469.792969 97.894531 552.101563 104.023438 552.101563 L 403.644531 552.101563 L 403.644531 1.742188 L 289.753906 1.742188 L 289.753906 436.421875 L 156.585938 436.421875 L 70.851563 311.890625 C 75.296875 305.742188 166.867188 263.414063 182.308594 255.328125 C 211.492188 240.050781 249.453125 196.28125 249.453125 154.230469 L 249.453125 122.683594 C 249.453125 64.785156 185.496094 1.742188 126.800781 1.742188 L -284.960938 1.742188 C -356.835938 1.742188 -412.867188 64.972656 -412.867188 138.453125 L -412.867188 369.816406 Z M -297.222656 315.484375 "/>
</g>
</g>
</svg>
