<?xml version="1.0" encoding="utf-8"?>
<!-- Generator: Adobe Illustrator 19.2.1, SVG Export Plug-In . SVG Version: 6.00 Build 0)  -->
<svg version="1.1" id="layer" xmlns="http://www.w3.org/2000/svg" xmlns:xlink="http://www.w3.org/1999/xlink" x="0px" y="0px"
	 viewBox="0 0 652 652" style="enable-background:new 0 0 652 652;" xml:space="preserve">
<path d="M168,250.4h-47.8v76c0,25.2-17.1,31.7-27.3,31.7C82.7,358,70,351.6,70,332.8v-82.3H21.8v85.3c0,37.2,11.9,60.7,52.5,60.7
	c16.3,0,38.1-9.1,46.8-23.5h0.6v19.5H168V250.4z M621.8,392.2l-51-74.7l44.7-67.1h-49.9l-20.1,33.9l-19.9-33.9H473l46.6,67.9
	l-50.8,73.9h52.7l23.7-38.5l24.1,38.5"/>
<path d="M328.8,250.4h-48.7l-27.1,93.8h-0.4L226,250.4H176l48.7,141.8H280L328.8,250.4"/>
<path d="M369.7,332.8c0.8,19.5,12.5,32.2,33.2,32.2c11.6,0,24.8-5.3,29.2-15.7h45.5c-8.9,32.8-42.1,47-75.3,47
	c-48.3,0-79.6-27.9-79.6-75.3c0-43.4,34.7-74.5,78.5-74.5c53.1,0,81.3,38.3,79.2,86.3L369.7,332.8L369.7,332.8z M431.7,306.7
	c-0.8-15.9-14.2-29-30.5-29c-17.1,0-28.6,11.9-31.5,29H431.7L431.7,306.7z"/>
</svg>
